<svg width="300" height="300" viewBox="0 0 300 300" fill="none" xmlns="http://www.w3.org/2000/svg">
<g clip-path="url(#clip0_277_203)">
<circle cx="150" cy="150" r="150" fill="url(#paint0_radial_277_203)"/>
<path d="M139.338 50.4899V30.8507C139.338 30.3909 139.338 29.904 139.338 29.39C139.365 28.849 139.392 28.2944 139.419 27.7263C138.5 28.619 137.431 29.4035 136.214 30.0798C134.996 30.729 133.752 31.2024 132.481 31.5L131.629 28.5379C132.115 28.4838 132.724 28.3079 133.454 28.0104C134.212 27.6858 134.996 27.2935 135.808 26.8337C136.647 26.3467 137.417 25.8328 138.121 25.2917C138.824 24.7507 139.365 24.2232 139.744 23.7092H142.584V50.4899H139.338ZM149.711 50.4899V47.8524C152.39 45.8776 154.621 44.1464 156.407 42.6586C158.219 41.1708 159.666 39.8182 160.748 38.6009C161.83 37.3836 162.601 36.2339 163.061 35.1519C163.521 34.0428 163.751 32.8931 163.751 31.7029C163.751 30.1068 163.237 28.8219 162.209 27.8481C161.208 26.8472 159.829 26.3467 158.07 26.3467C156.231 26.3467 154.757 26.9554 153.647 28.1727C152.538 29.3629 151.889 30.9589 151.7 32.9607L148.859 31.2565C149.103 29.6875 149.603 28.3079 150.361 27.1177C151.145 25.9274 152.187 24.9942 153.485 24.3179C154.811 23.6416 156.38 23.3035 158.192 23.3035C159.572 23.3035 160.802 23.5064 161.884 23.9121C162.994 24.3179 163.94 24.8995 164.725 25.6569C165.509 26.3873 166.104 27.2665 166.51 28.2944C166.943 29.3224 167.159 30.4585 167.159 31.7029C167.159 33.38 166.754 35.0301 165.942 36.6532C165.131 38.2492 163.792 39.9264 161.925 41.6847C160.059 43.443 157.529 45.3907 154.337 47.5278V47.5683C154.635 47.5413 155.041 47.5278 155.555 47.5278C156.096 47.5007 156.623 47.4872 157.137 47.4872C157.678 47.4601 158.084 47.4466 158.354 47.4466H167.728V50.4899H149.711Z" fill="#080808"/>
<path d="M151.395 250.984C152.828 250.984 154.073 251.187 155.128 251.592C156.21 251.971 157.143 252.58 157.927 253.418C158.712 254.23 159.375 255.298 159.916 256.624L156.913 258.044C156.507 256.8 155.845 255.826 154.925 255.123C154.032 254.392 152.788 254.027 151.192 254.027C150.029 254.027 149.001 254.325 148.108 254.92C147.215 255.488 146.458 256.286 145.836 257.314C145.213 258.342 144.74 259.545 144.415 260.925C144.118 262.305 143.969 263.792 143.969 265.389C143.969 265.443 143.969 265.524 143.969 265.632C143.969 265.74 143.969 265.902 143.969 266.119H144.131C144.429 264.956 144.97 264.022 145.754 263.319C146.566 262.589 147.472 262.061 148.473 261.737C149.501 261.385 150.502 261.209 151.476 261.209C153.288 261.209 154.871 261.561 156.223 262.264C157.576 262.967 158.617 263.968 159.348 265.267C160.105 266.565 160.484 268.107 160.484 269.893C160.484 271.651 160.105 273.193 159.348 274.518C158.59 275.817 157.522 276.818 156.142 277.521C154.79 278.224 153.166 278.576 151.273 278.576C149.028 278.576 147.134 277.981 145.592 276.791C144.05 275.6 142.887 273.977 142.103 271.921C141.318 269.838 140.926 267.458 140.926 264.78C140.926 261.777 141.386 259.261 142.305 257.233C143.225 255.177 144.47 253.621 146.038 252.566C147.635 251.511 149.42 250.984 151.395 250.984ZM151.232 264.334C150.069 264.334 149.041 264.577 148.148 265.064C147.283 265.524 146.607 266.173 146.12 267.012C145.633 267.823 145.389 268.77 145.389 269.852C145.389 270.88 145.646 271.827 146.16 272.692C146.674 273.531 147.364 274.207 148.23 274.721C149.122 275.208 150.123 275.452 151.232 275.452C153.072 275.452 154.505 274.965 155.533 273.991C156.561 272.99 157.075 271.61 157.075 269.852C157.075 268.716 156.845 267.742 156.386 266.93C155.926 266.092 155.263 265.456 154.397 265.023C153.532 264.563 152.477 264.334 151.232 264.334Z" fill="#080808"/>
<path d="M47.0084 110.228V90.5887C47.0084 90.1288 47.0084 89.6419 47.0084 89.1279C47.0354 88.5869 47.0625 88.0323 47.0895 87.4643C46.1698 88.3569 45.1013 89.1414 43.884 89.8177C42.6667 90.4669 41.4223 90.9403 40.1509 91.2379L39.2988 88.2758C39.7857 88.2217 40.3944 88.0459 41.1247 87.7483C41.8822 87.4237 42.6667 87.0314 43.4782 86.5716C44.3168 86.0846 45.0877 85.5707 45.7911 85.0297C46.4944 84.4886 47.0354 83.9611 47.4141 83.4472H50.2545V110.228H47.0084ZM66.9984 110.634C63.9687 110.634 61.5476 109.457 59.7352 107.103C57.9228 104.75 57.0165 101.328 57.0165 96.8375C57.0165 92.347 57.9228 88.925 59.7352 86.5716C61.5476 84.2181 63.9687 83.0414 66.9984 83.0414C70.0552 83.0414 72.4763 84.2181 74.2616 86.5716C76.0741 88.925 76.9803 92.347 76.9803 96.8375C76.9803 101.328 76.0741 104.75 74.2616 107.103C72.4763 109.457 70.0552 110.634 66.9984 110.634ZM66.9984 107.712C68.4321 107.712 69.6359 107.306 70.6097 106.495C71.6106 105.656 72.3545 104.425 72.8415 102.802C73.3554 101.179 73.6124 99.1909 73.6124 96.8375C73.6124 94.484 73.3554 92.4958 72.8415 90.8727C72.3545 89.2496 71.6106 88.0323 70.6097 87.2208C69.6359 86.3822 68.4321 85.9629 66.9984 85.9629C65.5647 85.9629 64.3474 86.3822 63.3465 87.2208C62.3727 88.0323 61.6288 89.2496 61.1148 90.8727C60.6279 92.4958 60.3844 94.484 60.3844 96.8375C60.3844 99.1909 60.6279 101.179 61.1148 102.802C61.6288 104.425 62.3727 105.656 63.3465 106.495C64.3474 107.306 65.5647 107.712 66.9984 107.712Z" fill="#080808"/>
<path d="M251.515 222.941V215.921H238.449V213.527L250.663 196.16H254.761V213.121H259.509V215.921H254.761V222.941H251.515ZM241.898 213.121H251.515V203.099C251.515 202.395 251.529 201.679 251.556 200.948C251.61 200.218 251.65 199.501 251.677 198.798H251.596C251.272 199.474 250.852 200.231 250.338 201.07C249.824 201.909 249.351 202.639 248.918 203.261L241.898 213.121Z" fill="#080808"/>
<path d="M87.5357 66.2697V46.6305C87.5357 46.1707 87.5357 45.6837 87.5357 45.1698C87.5628 44.6287 87.5898 44.0742 87.6169 43.5061C86.6971 44.3988 85.6286 45.1833 84.4113 45.8596C83.194 46.5088 81.9497 46.9822 80.6782 47.2798L79.8261 44.3177C80.3131 44.2636 80.9217 44.0877 81.6521 43.7902C82.4095 43.4655 83.194 43.0733 84.0055 42.6134C84.8441 42.1265 85.6151 41.6125 86.3184 41.0715C87.0217 40.5305 87.5628 40.003 87.9415 39.489H90.7818V66.2697H87.5357ZM103.346 66.2697V46.6305C103.346 46.1707 103.346 45.6837 103.346 45.1698C103.373 44.6287 103.4 44.0742 103.428 43.5061C102.508 44.3988 101.439 45.1833 100.222 45.8596C99.0046 46.5088 97.7603 46.9822 96.4889 47.2798L95.6368 44.3177C96.1237 44.2636 96.7324 44.0877 97.4627 43.7902C98.2202 43.4655 99.0046 43.0733 99.8162 42.6134C100.655 42.1265 101.426 41.6125 102.129 41.0715C102.832 40.5305 103.373 40.003 103.752 39.489H106.592V66.2697H103.346Z" fill="#080808"/>
<path d="M210.274 261.669C207.894 261.669 205.973 261.128 204.512 260.046C203.079 258.964 201.969 257.462 201.185 255.542L204.35 253.878C204.783 255.285 205.445 256.435 206.338 257.327C207.258 258.193 208.597 258.626 210.355 258.626C211.6 258.626 212.655 258.396 213.52 257.936C214.413 257.476 215.103 256.827 215.59 255.988C216.077 255.123 216.32 254.095 216.32 252.904C216.32 251.633 216.09 250.578 215.63 249.739C215.197 248.874 214.562 248.225 213.723 247.792C212.885 247.359 211.857 247.142 210.639 247.142C209.774 247.142 208.962 247.237 208.205 247.427C207.474 247.589 206.812 247.859 206.216 248.238C205.621 248.617 205.107 249.117 204.675 249.739L201.834 249.212L203.417 234.483H218.471V237.526H206.176L205.121 245.966L205.04 246.331H205.121C205.77 245.655 206.595 245.114 207.596 244.708C208.624 244.302 209.841 244.099 211.248 244.099C212.952 244.099 214.426 244.464 215.671 245.195C216.942 245.898 217.93 246.899 218.633 248.197C219.336 249.496 219.688 251.011 219.688 252.742C219.688 254.122 219.458 255.366 218.998 256.475C218.538 257.584 217.889 258.531 217.05 259.316C216.212 260.073 215.211 260.655 214.048 261.06C212.912 261.466 211.654 261.669 210.274 261.669Z" fill="#080808"/>
<path d="M210.972 66.2697V46.6305C210.972 46.1707 210.972 45.6837 210.972 45.1698C210.999 44.6287 211.026 44.0742 211.053 43.5061C210.133 44.3988 209.065 45.1833 207.847 45.8596C206.63 46.5088 205.386 46.9822 204.114 47.2798L203.262 44.3177C203.749 44.2636 204.358 44.0877 205.088 43.7902C205.845 43.4655 206.63 43.0733 207.441 42.6134C208.28 42.1265 209.051 41.6125 209.754 41.0715C210.458 40.5305 210.999 40.003 211.377 39.489H214.218V66.2697H210.972Z" fill="#080808"/>
<path d="M81.7754 234.483H101.496V237.526C99.2505 239.906 97.411 242.354 95.9773 244.87C94.5706 247.359 93.5427 249.956 92.8934 252.661C92.2442 255.366 91.9196 258.233 91.9196 261.263H88.5923C88.5923 258.261 88.9575 255.325 89.6879 252.458C90.4453 249.564 91.5815 246.791 93.0963 244.14C94.6112 241.489 96.4912 239.014 98.7365 236.714L99.264 237.526H81.7754V234.483Z" fill="#080808"/>
<path d="M242.495 110.228V107.59C245.173 105.616 247.405 103.884 249.191 102.396C251.003 100.909 252.45 99.5561 253.532 98.3388C254.614 97.1215 255.385 95.9718 255.845 94.8898C256.305 93.7807 256.535 92.631 256.535 91.4408C256.535 89.8448 256.021 88.5598 254.993 87.586C253.992 86.5851 252.612 86.0846 250.854 86.0846C249.015 86.0846 247.54 86.6933 246.431 87.9106C245.322 89.1008 244.673 90.6969 244.484 92.6986L241.643 90.9944C241.887 89.4255 242.387 88.0459 243.145 86.8556C243.929 85.6654 244.971 84.7321 246.269 84.0558C247.595 83.3795 249.163 83.0414 250.976 83.0414C252.356 83.0414 253.586 83.2443 254.668 83.65C255.777 84.0558 256.724 84.6374 257.509 85.3948C258.293 86.1252 258.888 87.0044 259.294 88.0323C259.727 89.0603 259.943 90.1964 259.943 91.4408C259.943 93.1179 259.538 94.7681 258.726 96.3911C257.915 97.9871 256.575 99.6643 254.709 101.423C252.842 103.181 250.313 105.129 247.121 107.266V107.306C247.419 107.279 247.824 107.266 248.338 107.266C248.879 107.239 249.407 107.225 249.921 107.225C250.462 107.198 250.868 107.185 251.138 107.185H260.511V110.228H242.495Z" fill="#080808"/>
<path d="M52.3279 195.795C54.0592 195.795 55.5605 196.079 56.8319 196.647C58.1033 197.215 59.0907 198.027 59.794 199.082C60.4973 200.11 60.849 201.354 60.849 202.815C60.849 204.194 60.5109 205.412 59.8346 206.467C59.1854 207.495 58.2656 208.279 57.0754 208.82V208.861C58.5902 209.429 59.794 210.294 60.6867 211.458C61.6064 212.621 62.0663 214.041 62.0663 215.718C62.0663 217.287 61.6605 218.64 60.849 219.776C60.0375 220.912 58.9013 221.791 57.4406 222.413C56.0069 223.035 54.3026 223.347 52.3279 223.347C50.3802 223.347 48.676 223.035 47.2152 222.413C45.7545 221.791 44.6183 220.912 43.8068 219.776C42.9953 218.64 42.5895 217.287 42.5895 215.718C42.5895 214.068 43.0358 212.661 43.9285 211.498C44.8212 210.308 46.052 209.429 47.621 208.861V208.82C46.4578 208.306 45.5245 207.535 44.8212 206.507C44.1449 205.452 43.8068 204.221 43.8068 202.815C43.8068 201.354 44.1585 200.11 44.8618 199.082C45.5651 198.027 46.5525 197.215 47.8239 196.647C49.1223 196.079 50.6237 195.795 52.3279 195.795ZM52.3279 198.838C50.7589 198.838 49.5011 199.217 48.5543 199.974C47.6345 200.732 47.1747 201.787 47.1747 203.139C47.1747 204.465 47.6481 205.506 48.5948 206.264C49.5416 207.021 50.786 207.4 52.3279 207.4C53.8698 207.4 55.1142 207.021 56.061 206.264C57.0078 205.506 57.4811 204.465 57.4811 203.139C57.4811 201.787 57.0213 200.732 56.1015 199.974C55.1818 199.217 53.9239 198.838 52.3279 198.838ZM52.3279 220.303C53.6534 220.303 54.7896 220.114 55.7363 219.735C56.6831 219.329 57.4135 218.761 57.9275 218.031C58.4415 217.274 58.6984 216.394 58.6984 215.394C58.6984 214.366 58.4279 213.486 57.8869 212.756C57.3729 211.999 56.6426 211.431 55.6958 211.052C54.749 210.646 53.6264 210.443 52.3279 210.443C51.0565 210.443 49.9339 210.646 48.96 211.052C48.0132 211.431 47.2693 211.999 46.7283 212.756C46.2143 213.486 45.9574 214.366 45.9574 215.394C45.9574 216.394 46.2143 217.274 46.7283 218.031C47.2423 218.761 47.9727 219.329 48.9195 219.735C49.8933 220.114 51.0294 220.303 52.3279 220.303Z" fill="#080808"/>
<path d="M33.0071 138.271C35.2524 138.271 37.146 138.866 38.6879 140.056C40.2298 141.219 41.393 142.843 42.1775 144.925C42.962 146.981 43.3542 149.362 43.3542 152.067C43.3542 155.07 42.962 157.599 42.1775 159.655C41.393 161.684 40.2298 163.226 38.6879 164.281C37.173 165.336 35.293 165.863 33.0477 165.863C30.8295 165.863 28.9224 165.349 27.3264 164.321C25.7304 163.293 24.5401 161.792 23.7556 159.817L26.9612 158.113C27.394 159.52 28.0974 160.656 29.0712 161.521C30.0721 162.387 31.4382 162.82 33.1694 162.82C34.5761 162.82 35.7393 162.549 36.659 162.008C37.6058 161.44 38.3497 160.642 38.8908 159.614C39.4318 158.559 39.8105 157.301 40.0269 155.841C40.2704 154.38 40.3921 152.757 40.3921 150.971C40.3921 150.917 40.3921 150.863 40.3921 150.809C40.3921 150.728 40.3921 150.66 40.3921 150.606H40.2298C39.9052 151.824 39.3371 152.811 38.5256 153.568C37.714 154.299 36.7943 154.826 35.7663 155.151C34.7655 155.475 33.7646 155.638 32.7637 155.638C31.0054 155.638 29.4499 155.3 28.0974 154.623C26.7448 153.92 25.6898 152.946 24.9324 151.702C24.1749 150.457 23.7962 148.983 23.7962 147.279C23.7962 145.439 24.1614 143.857 24.8918 142.531C25.6222 141.179 26.6772 140.137 28.0568 139.407C29.4364 138.65 31.0865 138.271 33.0071 138.271ZM33.0477 141.395C31.1541 141.395 29.7069 141.923 28.706 142.978C27.7051 144.006 27.2047 145.453 27.2047 147.319C27.2047 148.916 27.7322 150.187 28.7872 151.134C29.8422 152.053 31.2623 152.513 33.0477 152.513C34.2109 152.513 35.2253 152.283 36.091 151.824C36.9837 151.337 37.6735 150.687 38.1604 149.876C38.6473 149.037 38.8908 148.077 38.8908 146.995C38.8908 145.859 38.6473 144.871 38.1604 144.033C37.6735 143.194 36.9837 142.545 36.091 142.085C35.2253 141.625 34.2109 141.395 33.0477 141.395Z" fill="#080808"/>
<path d="M267.86 165.863C265.479 165.863 263.369 165.308 261.53 164.199C259.717 163.063 258.486 161.508 257.837 159.533L261.083 157.869C261.408 158.87 261.854 159.749 262.422 160.507C262.99 161.237 263.734 161.805 264.654 162.211C265.601 162.617 266.777 162.82 268.184 162.82C269.374 162.82 270.375 162.603 271.187 162.17C271.998 161.738 272.621 161.156 273.053 160.426C273.486 159.668 273.703 158.803 273.703 157.829C273.703 156.855 273.513 156.043 273.135 155.394C272.783 154.745 272.215 154.272 271.43 153.974C270.646 153.649 269.618 153.487 268.346 153.487C268.049 153.487 267.724 153.501 267.373 153.528C267.021 153.528 266.656 153.555 266.277 153.609V150.363C266.521 150.39 266.75 150.403 266.967 150.403C267.21 150.403 267.427 150.403 267.616 150.403C269.591 150.403 270.997 150.024 271.836 149.267C272.675 148.483 273.094 147.265 273.094 145.615C273.094 144.208 272.661 143.14 271.795 142.41C270.93 141.679 269.699 141.314 268.103 141.314C266.399 141.314 265.1 141.693 264.208 142.45C263.315 143.181 262.612 144.181 262.098 145.453L259.014 143.992C259.447 142.856 260.096 141.855 260.962 140.989C261.827 140.124 262.869 139.447 264.086 138.961C265.33 138.474 266.696 138.23 268.184 138.23C270.051 138.23 271.593 138.555 272.81 139.204C274.027 139.826 274.933 140.665 275.529 141.72C276.151 142.775 276.462 143.938 276.462 145.209C276.462 146.183 276.327 147.062 276.056 147.847C275.786 148.604 275.407 149.267 274.92 149.835C274.46 150.403 273.933 150.863 273.337 151.215C272.742 151.539 272.107 151.756 271.43 151.864V151.945C272.323 151.972 273.107 152.148 273.784 152.473C274.487 152.797 275.082 153.23 275.569 153.771C276.056 154.312 276.421 154.934 276.665 155.638C276.935 156.314 277.07 157.031 277.07 157.788C277.07 159.357 276.678 160.75 275.894 161.968C275.136 163.185 274.068 164.145 272.688 164.849C271.309 165.525 269.699 165.863 267.86 165.863Z" fill="#080808"/>
<line x1="150.699" y1="9.10828" x2="150.699" y2="18.1253" stroke="#080808" stroke-width="1.12713"/>
<line x1="150.699" y1="281.874" x2="150.699" y2="290.891" stroke="#080808" stroke-width="1.12713"/>
<line x1="135.689" y1="9.85092" x2="136.631" y2="18.8186" stroke="#080808" stroke-width="0.563565"/>
<line x1="164.201" y1="281.122" x2="165.143" y2="290.09" stroke="#080808" stroke-width="0.563565"/>
<line x1="121.118" y1="12.1287" x2="122.993" y2="20.9487" stroke="#080808" stroke-width="0.563565"/>
<line x1="177.829" y1="278.934" x2="179.704" y2="287.754" stroke="#080808" stroke-width="0.563565"/>
<line x1="106.866" y1="15.917" x2="109.652" y2="24.4927" stroke="#080808" stroke-width="0.563565"/>
<line x1="191.155" y1="275.332" x2="193.942" y2="283.908" stroke="#080808" stroke-width="0.563565"/>
<line x1="93.0876" y1="21.1745" x2="96.7552" y2="29.4119" stroke="#080808" stroke-width="0.563565"/>
<line x1="204.031" y1="270.358" x2="207.699" y2="278.596" stroke="#080808" stroke-width="0.563565"/>
<line x1="67.5497" y1="35.8509" x2="72.8498" y2="43.1458" stroke="#080808" stroke-width="0.563565"/>
<line x1="227.877" y1="256.523" x2="233.177" y2="263.818" stroke="#080808" stroke-width="0.563565"/>
<line x1="56.0704" y1="45.1088" x2="62.1039" y2="51.8098" stroke="#080808" stroke-width="0.563565"/>
<line x1="238.586" y1="247.813" x2="244.62" y2="254.514" stroke="#080808" stroke-width="0.563565"/>
<line x1="45.6217" y1="55.5158" x2="52.3226" y2="61.5494" stroke="#080808" stroke-width="0.563565"/>
<line x1="248.326" y1="238.032" x2="255.027" y2="244.065" stroke="#080808" stroke-width="0.563565"/>
<line x1="36.3176" y1="66.9579" x2="43.6125" y2="72.258" stroke="#080808" stroke-width="0.563565"/>
<line x1="256.99" y1="227.285" x2="264.285" y2="232.586" stroke="#080808" stroke-width="0.563565"/>
<line x1="21.5395" y1="92.4369" x2="29.777" y2="96.1045" stroke="#080808" stroke-width="0.563565"/>
<line x1="270.723" y1="203.381" x2="278.961" y2="207.048" stroke="#080808" stroke-width="0.563565"/>
<line x1="16.2271" y1="106.194" x2="24.8028" y2="108.981" stroke="#080808" stroke-width="0.563565"/>
<line x1="275.643" y1="190.483" x2="284.218" y2="193.27" stroke="#080808" stroke-width="0.563565"/>
<line x1="12.3816" y1="120.431" x2="21.2016" y2="122.306" stroke="#080808" stroke-width="0.563565"/>
<line x1="279.187" y1="177.142" x2="288.007" y2="179.017" stroke="#080808" stroke-width="0.563565"/>
<line x1="10.0454" y1="134.993" x2="19.0131" y2="135.935" stroke="#080808" stroke-width="0.563565"/>
<line x1="281.317" y1="163.504" x2="290.284" y2="164.447" stroke="#080808" stroke-width="0.563565"/>
<line x1="9.98678" y1="164.447" x2="18.9544" y2="163.504" stroke="#080808" stroke-width="0.563565"/>
<line x1="281.258" y1="135.935" x2="290.226" y2="134.993" stroke="#080808" stroke-width="0.563565"/>
<line x1="12.2645" y1="179.017" x2="21.0845" y2="177.142" stroke="#080808" stroke-width="0.563565"/>
<line x1="279.07" y1="122.306" x2="287.89" y2="120.431" stroke="#080808" stroke-width="0.563565"/>
<line x1="16.0529" y1="193.27" x2="24.6287" y2="190.483" stroke="#080808" stroke-width="0.563565"/>
<line x1="275.469" y1="108.98" x2="284.044" y2="106.194" stroke="#080808" stroke-width="0.563565"/>
<line x1="21.3102" y1="207.048" x2="29.5477" y2="203.38" stroke="#080808" stroke-width="0.563565"/>
<line x1="270.494" y1="96.1043" x2="278.732" y2="92.4367" stroke="#080808" stroke-width="0.563565"/>
<line x1="35.9866" y1="232.586" x2="43.2815" y2="227.286" stroke="#080808" stroke-width="0.563565"/>
<line x1="256.659" y1="72.2582" x2="263.954" y2="66.9582" stroke="#080808" stroke-width="0.563565"/>
<line x1="45.2446" y1="244.065" x2="51.9455" y2="238.031" stroke="#080808" stroke-width="0.563565"/>
<line x1="247.949" y1="61.5494" x2="254.65" y2="55.5158" stroke="#080808" stroke-width="0.563565"/>
<line x1="55.6516" y1="254.514" x2="61.6851" y2="247.813" stroke="#080808" stroke-width="0.563565"/>
<line x1="238.167" y1="51.8095" x2="244.201" y2="45.1085" stroke="#080808" stroke-width="0.563565"/>
<line x1="67.0938" y1="263.818" x2="72.3939" y2="256.523" stroke="#080808" stroke-width="0.563565"/>
<line x1="227.421" y1="43.1457" x2="232.722" y2="35.8507" stroke="#080808" stroke-width="0.563565"/>
<line x1="92.5736" y1="278.596" x2="96.2412" y2="270.359" stroke="#080808" stroke-width="0.563565"/>
<line x1="203.517" y1="29.4124" x2="207.185" y2="21.1749" stroke="#080808" stroke-width="0.563565"/>
<line x1="106.331" y1="283.909" x2="109.117" y2="275.333" stroke="#080808" stroke-width="0.563565"/>
<line x1="190.62" y1="24.4932" x2="193.406" y2="15.9175" stroke="#080808" stroke-width="0.563565"/>
<line x1="120.568" y1="287.754" x2="122.443" y2="278.934" stroke="#080808" stroke-width="0.563565"/>
<line x1="177.279" y1="20.9492" x2="179.154" y2="12.1292" stroke="#080808" stroke-width="0.563565"/>
<line x1="135.129" y1="290.09" x2="136.072" y2="281.123" stroke="#080808" stroke-width="0.563565"/>
<line x1="163.641" y1="18.8191" x2="164.583" y2="9.85141" stroke="#080808" stroke-width="0.563565"/>
<line x1="291.027" y1="150.563" x2="282.01" y2="150.563" stroke="#080808" stroke-width="1.12713"/>
<line x1="18.2614" y1="150.563" x2="9.24431" y2="150.563" stroke="#080808" stroke-width="1.12713"/>
<line x1="80.1784" y1="27.7023" x2="84.6869" y2="35.5113" stroke="#080808" stroke-width="1.12713"/>
<line x1="216.561" y1="263.924" x2="221.07" y2="271.733" stroke="#080808" stroke-width="1.12713"/>
<line x1="28.4019" y1="79.066" x2="36.2109" y2="83.5745" stroke="#080808" stroke-width="1.12713"/>
<line x1="264.624" y1="215.449" x2="272.433" y2="219.957" stroke="#080808" stroke-width="1.12713"/>
<line x1="221.069" y1="28.266" x2="216.561" y2="36.075" stroke="#080808" stroke-width="1.12713"/>
<line x1="84.6865" y1="264.488" x2="80.178" y2="272.297" stroke="#080808" stroke-width="1.12713"/>
<line x1="272.433" y1="80.0421" x2="264.624" y2="84.5507" stroke="#080808" stroke-width="1.12713"/>
<line x1="36.211" y1="216.425" x2="28.402" y2="220.933" stroke="#080808" stroke-width="1.12713"/>
</g>
<defs>
<radialGradient id="paint0_radial_277_203" cx="0" cy="0" r="1" gradientUnits="userSpaceOnUse" gradientTransform="translate(150 150) rotate(90) scale(150)">
<stop offset="0.95" stop-color="white"/>
<stop offset="1" stop-color="#C6C6C6"/>
</radialGradient>
<clipPath id="clip0_277_203">
<rect width="300" height="300" fill="white"/>
</clipPath>
</defs>
</svg>
